<svg width="18" height="30" viewBox="0 0 18 30" fill="none" xmlns="http://www.w3.org/2000/svg">
<path d="M8.89024 29.9947C5.81707 29.9947 3.54878 28.9628 2.08537 26.8991C0.695122 24.7643 0 22.3092 0 19.5339C0 16.4739 0.695122 13.6275 2.08537 10.9945C3.47561 8.3615 5.23171 6.08432 7.35366 4.16296C9.54878 2.24159 11.8537 0.853938 14.2683 0L18 5.44387C17.0488 6.01316 15.9878 6.83152 14.8171 7.89895C13.6463 8.89522 12.5854 9.99822 11.6341 11.208C10.6829 12.3466 10.0244 13.4496 9.65854 14.517C11.0488 14.5881 12.2927 14.944 13.3902 15.5844C14.561 16.2249 15.4756 17.1144 16.1341 18.253C16.7927 19.3204 17.122 20.6369 17.122 22.2025C17.122 24.7643 16.2439 26.7212 14.4878 28.0733C12.8049 29.4254 10.939 30.0658 8.89024 29.9947Z" fill="#033FFF" fill-opacity="0.3"/>
</svg>
