<svg width="18" height="30" viewBox="0 0 18 30" fill="none" xmlns="http://www.w3.org/2000/svg">
<path d="M9.10976 29.9947C12.1829 29.9947 14.4512 28.9628 15.9146 26.8991C17.3049 24.7643 18 22.3092 18 19.5339C18 16.4739 17.3049 13.6275 15.9146 10.9945C14.5244 8.3615 12.7683 6.08432 10.6463 4.16296C8.45122 2.24159 6.14634 0.853938 3.73171 0L0 5.44387C0.95122 6.01316 2.01219 6.83152 3.18293 7.89895C4.35366 8.89522 5.41463 9.99822 6.36585 11.208C7.31707 12.3466 7.97561 13.4496 8.34146 14.517C6.95122 14.5881 5.70732 14.944 4.60976 15.5844C3.43902 16.2249 2.52439 17.1144 1.86585 18.253C1.20732 19.3204 0.878048 20.6369 0.878048 22.2025C0.878048 24.7643 1.7561 26.7212 3.5122 28.0733C5.19512 29.4254 7.06098 30.0658 9.10976 29.9947Z" fill="#033FFF" fill-opacity="0.3"/>
</svg>
