<svg width="85" height="23" viewBox="0 0 85 23" fill="none" xmlns="http://www.w3.org/2000/svg">
<path d="M84.5607 12.1066C85.1464 11.5208 85.1464 10.571 84.5607 9.98524L75.0147 0.439297C74.4289 -0.14649 73.4792 -0.14649 72.8934 0.439297C72.3076 1.02508 72.3076 1.97483 72.8934 2.56062L81.3787 11.0459L72.8934 19.5312C72.3076 20.117 72.3076 21.0667 72.8934 21.6525C73.4792 22.2383 74.4289 22.2383 75.0147 21.6525L84.5607 12.1066ZM3.71111 12.5459C4.53954 12.5459 5.21111 11.8743 5.21111 11.0459C5.21111 10.2175 4.53954 9.5459 3.71111 9.5459V11.0459V12.5459ZM10.2056 9.5459C9.37713 9.5459 8.70555 10.2175 8.70555 11.0459C8.70555 11.8743 9.37713 12.5459 10.2056 12.5459V11.0459V9.5459ZM17.6278 12.5459C18.4562 12.5459 19.1278 11.8743 19.1278 11.0459C19.1278 10.2175 18.4562 9.5459 17.6278 9.5459V11.0459V12.5459ZM24.1222 9.5459C23.2938 9.5459 22.6222 10.2175 22.6222 11.0459C22.6222 11.8743 23.2938 12.5459 24.1222 12.5459V11.0459V9.5459ZM31.5444 12.5459C32.3729 12.5459 33.0444 11.8743 33.0444 11.0459C33.0444 10.2175 32.3729 9.5459 31.5444 9.5459V11.0459V12.5459ZM38.0389 9.5459C37.2105 9.5459 36.5389 10.2175 36.5389 11.0459C36.5389 11.8743 37.2105 12.5459 38.0389 12.5459V11.0459V9.5459ZM45.4611 12.5459C46.2895 12.5459 46.9611 11.8743 46.9611 11.0459C46.9611 10.2175 46.2895 9.5459 45.4611 9.5459V11.0459V12.5459ZM51.9556 9.5459C51.1271 9.5459 50.4556 10.2175 50.4556 11.0459C50.4556 11.8743 51.1271 12.5459 51.9556 12.5459V11.0459V9.5459ZM59.3778 12.5459C60.2062 12.5459 60.8778 11.8743 60.8778 11.0459C60.8778 10.2175 60.2062 9.5459 59.3778 9.5459V11.0459V12.5459ZM65.8722 9.5459C65.0438 9.5459 64.3722 10.2175 64.3722 11.0459C64.3722 11.8743 65.0438 12.5459 65.8722 12.5459V11.0459V9.5459ZM73.2944 12.5459C74.1229 12.5459 74.7944 11.8743 74.7944 11.0459C74.7944 10.2175 74.1229 9.5459 73.2944 9.5459V11.0459V12.5459ZM79.7889 9.5459C78.9605 9.5459 78.2889 10.2175 78.2889 11.0459C78.2889 11.8743 78.9605 12.5459 79.7889 12.5459V11.0459V9.5459ZM0 11.0459V12.5459H3.71111V11.0459V9.5459H0V11.0459ZM10.2056 11.0459V12.5459H17.6278V11.0459V9.5459H10.2056V11.0459ZM24.1222 11.0459V12.5459H31.5444V11.0459V9.5459H24.1222V11.0459ZM38.0389 11.0459V12.5459H45.4611V11.0459V9.5459H38.0389V11.0459ZM51.9556 11.0459V12.5459H59.3778V11.0459V9.5459H51.9556V11.0459ZM65.8722 11.0459V12.5459H73.2944V11.0459V9.5459H65.8722V11.0459ZM79.7889 11.0459V12.5459H83.5V11.0459V9.5459H79.7889V11.0459ZM84.5607 12.1066C85.1464 11.5208 85.1464 10.571 84.5607 9.98524L75.0147 0.439297C74.4289 -0.14649 73.4792 -0.14649 72.8934 0.439297C72.3076 1.02508 72.3076 1.97483 72.8934 2.56062L81.3787 11.0459L72.8934 19.5312C72.3076 20.117 72.3076 21.0667 72.8934 21.6525C73.4792 22.2383 74.4289 22.2383 75.0147 21.6525L84.5607 12.1066ZM3.71111 12.5459C4.53954 12.5459 5.21111 11.8743 5.21111 11.0459C5.21111 10.2175 4.53954 9.5459 3.71111 9.5459V11.0459V12.5459ZM10.2056 9.5459C9.37713 9.5459 8.70555 10.2175 8.70555 11.0459C8.70555 11.8743 9.37713 12.5459 10.2056 12.5459V11.0459V9.5459ZM17.6278 12.5459C18.4562 12.5459 19.1278 11.8743 19.1278 11.0459C19.1278 10.2175 18.4562 9.5459 17.6278 9.5459V11.0459V12.5459ZM24.1222 9.5459C23.2938 9.5459 22.6222 10.2175 22.6222 11.0459C22.6222 11.8743 23.2938 12.5459 24.1222 12.5459V11.0459V9.5459ZM31.5444 12.5459C32.3729 12.5459 33.0444 11.8743 33.0444 11.0459C33.0444 10.2175 32.3729 9.5459 31.5444 9.5459V11.0459V12.5459ZM38.0389 9.5459C37.2105 9.5459 36.5389 10.2175 36.5389 11.0459C36.5389 11.8743 37.2105 12.5459 38.0389 12.5459V11.0459V9.5459ZM45.4611 12.5459C46.2895 12.5459 46.9611 11.8743 46.9611 11.0459C46.9611 10.2175 46.2895 9.5459 45.4611 9.5459V11.0459V12.5459ZM51.9556 9.5459C51.1271 9.5459 50.4556 10.2175 50.4556 11.0459C50.4556 11.8743 51.1271 12.5459 51.9556 12.5459V11.0459V9.5459ZM59.3778 12.5459C60.2062 12.5459 60.8778 11.8743 60.8778 11.0459C60.8778 10.2175 60.2062 9.5459 59.3778 9.5459V11.0459V12.5459ZM65.8722 9.5459C65.0438 9.5459 64.3722 10.2175 64.3722 11.0459C64.3722 11.8743 65.0438 12.5459 65.8722 12.5459V11.0459V9.5459ZM73.2944 12.5459C74.1229 12.5459 74.7944 11.8743 74.7944 11.0459C74.7944 10.2175 74.1229 9.5459 73.2944 9.5459V11.0459V12.5459ZM79.7889 9.5459C78.9605 9.5459 78.2889 10.2175 78.2889 11.0459C78.2889 11.8743 78.9605 12.5459 79.7889 12.5459V11.0459V9.5459ZM0 11.0459V12.5459H3.71111V11.0459V9.5459H0V11.0459ZM10.2056 11.0459V12.5459H17.6278V11.0459V9.5459H10.2056V11.0459ZM24.1222 11.0459V12.5459H31.5444V11.0459V9.5459H24.1222V11.0459ZM38.0389 11.0459V12.5459H45.4611V11.0459V9.5459H38.0389V11.0459ZM51.9556 11.0459V12.5459H59.3778V11.0459V9.5459H51.9556V11.0459ZM65.8722 11.0459V12.5459H73.2944V11.0459V9.5459H65.8722V11.0459ZM79.7889 11.0459V12.5459H83.5V11.0459V9.5459H79.7889V11.0459Z" fill="#050038" fill-opacity="0.3"/>
</svg>
