<svg width="44" height="173" viewBox="0 0 44 173" fill="none" xmlns="http://www.w3.org/2000/svg">
<path d="M1.5 161.5V163H0V161.5H1.5ZM43.0607 160.439C43.6464 161.025 43.6464 161.975 43.0607 162.561L33.5147 172.107C32.9289 172.692 31.9792 172.692 31.3934 172.107C30.8076 171.521 30.8076 170.571 31.3934 169.985L39.8787 161.5L31.3934 153.015C30.8076 152.429 30.8076 151.479 31.3934 150.893C31.9792 150.308 32.9289 150.308 33.5147 150.893L43.0607 160.439ZM3 3.91515C3 4.74358 2.32843 5.41515 1.5 5.41515C0.671573 5.41515 0 4.74358 0 3.91515H1.5H3ZM0 10.7667C0 9.93823 0.671573 9.26666 1.5 9.26666C2.32843 9.26666 3 9.93823 3 10.7667H1.5H0ZM3 18.597C3 19.4254 2.32843 20.097 1.5 20.097C0.671573 20.097 0 19.4254 0 18.597H1.5H3ZM0 25.4485C0 24.6201 0.671573 23.9485 1.5 23.9485C2.32843 23.9485 3 24.6201 3 25.4485H1.5H0ZM3 33.2788C3 34.1072 2.32843 34.7788 1.5 34.7788C0.671573 34.7788 0 34.1072 0 33.2788H1.5H3ZM0 40.1303C0 39.3019 0.671573 38.6303 1.5 38.6303C2.32843 38.6303 3 39.3019 3 40.1303H1.5H0ZM3 47.9606C3 48.789 2.32843 49.4606 1.5 49.4606C0.671573 49.4606 0 48.789 0 47.9606H1.5H3ZM0 54.8121C0 53.9837 0.671573 53.3121 1.5 53.3121C2.32843 53.3121 3 53.9837 3 54.8121H1.5H0ZM3 62.6424C3 63.4709 2.32843 64.1424 1.5 64.1424C0.671573 64.1424 0 63.4709 0 62.6424H1.5H3ZM0 69.4939C0 68.6655 0.671573 67.9939 1.5 67.9939C2.32843 67.9939 3 68.6655 3 69.4939H1.5H0ZM3 77.3242C3 78.1527 2.32843 78.8242 1.5 78.8242C0.671573 78.8242 0 78.1527 0 77.3242H1.5H3ZM0 84.1758C0 83.3473 0.671573 82.6758 1.5 82.6758C2.32843 82.6758 3 83.3473 3 84.1758H1.5H0ZM3 92.0061C3 92.8345 2.32843 93.5061 1.5 93.5061C0.671573 93.5061 0 92.8345 0 92.0061H1.5H3ZM0 98.8576C0 98.0292 0.671573 97.3576 1.5 97.3576C2.32843 97.3576 3 98.0292 3 98.8576H1.5H0ZM3 106.688C3 107.516 2.32843 108.188 1.5 108.188C0.671573 108.188 0 107.516 0 106.688H1.5H3ZM0 113.539C0 112.711 0.671573 112.039 1.5 112.039C2.32843 112.039 3 112.711 3 113.539H1.5H0ZM3 121.37C3 122.198 2.32843 122.87 1.5 122.87C0.671573 122.87 0 122.198 0 121.37H1.5H3ZM0 128.221C0 127.393 0.671573 126.721 1.5 126.721C2.32843 126.721 3 127.393 3 128.221H1.5H0ZM3 136.052C3 136.88 2.32843 137.552 1.5 137.552C0.671573 137.552 0 136.88 0 136.052H1.5H3ZM0 142.903C0 142.075 0.671573 141.403 1.5 141.403C2.32843 141.403 3 142.075 3 142.903H1.5H0ZM3 150.733C3 151.562 2.32843 152.233 1.5 152.233C0.671573 152.233 0 151.562 0 150.733H1.5H3ZM0 157.585C0 156.756 0.671573 156.085 1.5 156.085C2.32843 156.085 3 156.756 3 157.585H1.5H0ZM5.1 160C5.92843 160 6.6 160.672 6.6 161.5C6.6 162.328 5.92843 163 5.1 163V161.5V160ZM11.4 163C10.5716 163 9.9 162.328 9.9 161.5C9.9 160.672 10.5716 160 11.4 160V161.5V163ZM18.6 160C19.4284 160 20.1 160.672 20.1 161.5C20.1 162.328 19.4284 163 18.6 163V161.5V160ZM24.9 163C24.0716 163 23.4 162.328 23.4 161.5C23.4 160.672 24.0716 160 24.9 160V161.5V163ZM32.1 160C32.9284 160 33.6 160.672 33.6 161.5C33.6 162.328 32.9284 163 32.1 163V161.5V160ZM38.4 163C37.5716 163 36.9 162.328 36.9 161.5C36.9 160.672 37.5716 160 38.4 160V161.5V163ZM1.5 0H3V3.91515H1.5H0V0H1.5ZM1.5 10.7667H3V18.597H1.5H0V10.7667H1.5ZM1.5 25.4485H3V33.2788H1.5H0V25.4485H1.5ZM1.5 40.1303H3V47.9606H1.5H0V40.1303H1.5ZM1.5 54.8121H3V62.6424H1.5H0V54.8121H1.5ZM1.5 69.4939H3V77.3242H1.5H0V69.4939H1.5ZM1.5 84.1758H3V92.0061H1.5H0V84.1758H1.5ZM1.5 98.8576H3V106.688H1.5H0V98.8576H1.5ZM1.5 113.539H3V121.37H1.5H0V113.539H1.5ZM1.5 128.221H3V136.052H1.5H0V128.221H1.5ZM1.5 142.903H3V150.733H1.5H0V142.903H1.5ZM1.5 157.585H3V161.5H1.5H0V157.585H1.5ZM1.5 161.5V160H5.1V161.5V163H1.5V161.5ZM11.4 161.5V160H18.6V161.5V163H11.4V161.5ZM24.9 161.5V160H32.1V161.5V163H24.9V161.5ZM38.4 161.5V160H42V161.5V163H38.4V161.5ZM1.5 161.5V163H0V161.5H1.5ZM43.0607 160.439C43.6464 161.025 43.6464 161.975 43.0607 162.561L33.5147 172.107C32.9289 172.692 31.9792 172.692 31.3934 172.107C30.8076 171.521 30.8076 170.571 31.3934 169.985L39.8787 161.5L31.3934 153.015C30.8076 152.429 30.8076 151.479 31.3934 150.893C31.9792 150.308 32.9289 150.308 33.5147 150.893L43.0607 160.439ZM3 3.91515C3 4.74358 2.32843 5.41515 1.5 5.41515C0.671573 5.41515 0 4.74358 0 3.91515H1.5H3ZM0 10.7667C0 9.93823 0.671573 9.26666 1.5 9.26666C2.32843 9.26666 3 9.93823 3 10.7667H1.5H0ZM3 18.597C3 19.4254 2.32843 20.097 1.5 20.097C0.671573 20.097 0 19.4254 0 18.597H1.5H3ZM0 25.4485C0 24.6201 0.671573 23.9485 1.5 23.9485C2.32843 23.9485 3 24.6201 3 25.4485H1.5H0ZM3 33.2788C3 34.1072 2.32843 34.7788 1.5 34.7788C0.671573 34.7788 0 34.1072 0 33.2788H1.5H3ZM0 40.1303C0 39.3019 0.671573 38.6303 1.5 38.6303C2.32843 38.6303 3 39.3019 3 40.1303H1.5H0ZM3 47.9606C3 48.789 2.32843 49.4606 1.5 49.4606C0.671573 49.4606 0 48.789 0 47.9606H1.5H3ZM0 54.8121C0 53.9837 0.671573 53.3121 1.5 53.3121C2.32843 53.3121 3 53.9837 3 54.8121H1.5H0ZM3 62.6424C3 63.4709 2.32843 64.1424 1.5 64.1424C0.671573 64.1424 0 63.4709 0 62.6424H1.5H3ZM0 69.4939C0 68.6655 0.671573 67.9939 1.5 67.9939C2.32843 67.9939 3 68.6655 3 69.4939H1.5H0ZM3 77.3242C3 78.1527 2.32843 78.8242 1.5 78.8242C0.671573 78.8242 0 78.1527 0 77.3242H1.5H3ZM0 84.1758C0 83.3473 0.671573 82.6758 1.5 82.6758C2.32843 82.6758 3 83.3473 3 84.1758H1.5H0ZM3 92.0061C3 92.8345 2.32843 93.5061 1.5 93.5061C0.671573 93.5061 0 92.8345 0 92.0061H1.5H3ZM0 98.8576C0 98.0292 0.671573 97.3576 1.5 97.3576C2.32843 97.3576 3 98.0292 3 98.8576H1.5H0ZM3 106.688C3 107.516 2.32843 108.188 1.5 108.188C0.671573 108.188 0 107.516 0 106.688H1.5H3ZM0 113.539C0 112.711 0.671573 112.039 1.5 112.039C2.32843 112.039 3 112.711 3 113.539H1.5H0ZM3 121.37C3 122.198 2.32843 122.87 1.5 122.87C0.671573 122.87 0 122.198 0 121.37H1.5H3ZM0 128.221C0 127.393 0.671573 126.721 1.5 126.721C2.32843 126.721 3 127.393 3 128.221H1.5H0ZM3 136.052C3 136.88 2.32843 137.552 1.5 137.552C0.671573 137.552 0 136.88 0 136.052H1.5H3ZM0 142.903C0 142.075 0.671573 141.403 1.5 141.403C2.32843 141.403 3 142.075 3 142.903H1.5H0ZM3 150.733C3 151.562 2.32843 152.233 1.5 152.233C0.671573 152.233 0 151.562 0 150.733H1.5H3ZM0 157.585C0 156.756 0.671573 156.085 1.5 156.085C2.32843 156.085 3 156.756 3 157.585H1.5H0ZM5.1 160C5.92843 160 6.6 160.672 6.6 161.5C6.6 162.328 5.92843 163 5.1 163V161.5V160ZM11.4 163C10.5716 163 9.9 162.328 9.9 161.5C9.9 160.672 10.5716 160 11.4 160V161.5V163ZM18.6 160C19.4284 160 20.1 160.672 20.1 161.5C20.1 162.328 19.4284 163 18.6 163V161.5V160ZM24.9 163C24.0716 163 23.4 162.328 23.4 161.5C23.4 160.672 24.0716 160 24.9 160V161.5V163ZM32.1 160C32.9284 160 33.6 160.672 33.6 161.5C33.6 162.328 32.9284 163 32.1 163V161.5V160ZM38.4 163C37.5716 163 36.9 162.328 36.9 161.5C36.9 160.672 37.5716 160 38.4 160V161.5V163ZM1.5 0H3V3.91515H1.5H0V0H1.5ZM1.5 10.7667H3V18.597H1.5H0V10.7667H1.5ZM1.5 25.4485H3V33.2788H1.5H0V25.4485H1.5ZM1.5 40.1303H3V47.9606H1.5H0V40.1303H1.5ZM1.5 54.8121H3V62.6424H1.5H0V54.8121H1.5ZM1.5 69.4939H3V77.3242H1.5H0V69.4939H1.5ZM1.5 84.1758H3V92.0061H1.5H0V84.1758H1.5ZM1.5 98.8576H3V106.688H1.5H0V98.8576H1.5ZM1.5 113.539H3V121.37H1.5H0V113.539H1.5ZM1.5 128.221H3V136.052H1.5H0V128.221H1.5ZM1.5 142.903H3V150.733H1.5H0V142.903H1.5ZM1.5 157.585H3V161.5H1.5H0V157.585H1.5ZM1.5 161.5V160H5.1V161.5V163H1.5V161.5ZM11.4 161.5V160H18.6V161.5V163H11.4V161.5ZM24.9 161.5V160H32.1V161.5V163H24.9V161.5ZM38.4 161.5V160H42V161.5V163H38.4V161.5Z" fill="#050038" fill-opacity="0.3"/>
</svg>
