<svg width="111" height="175" viewBox="0 0 111 175" fill="none" xmlns="http://www.w3.org/2000/svg">
<path d="M68.5 172.546V174.046H70V172.546H68.5ZM68.5 11.0459V9.5459H67V11.0459H68.5ZM110.061 12.1066C110.646 11.5208 110.646 10.571 110.061 9.98524L100.515 0.439297C99.9289 -0.14649 98.9792 -0.14649 98.3934 0.439297C97.8076 1.02508 97.8076 1.97483 98.3934 2.56062L106.879 11.0459L98.3934 19.5312C97.8076 20.117 97.8076 21.0667 98.3934 21.6525C98.9792 22.2383 99.9289 22.2383 100.515 21.6525L110.061 12.1066ZM3.65333 174.046C4.48176 174.046 5.15333 173.374 5.15333 172.546C5.15333 171.717 4.48176 171.046 3.65333 171.046V172.546V174.046ZM10.0467 171.046C9.21824 171.046 8.54667 171.717 8.54667 172.546C8.54667 173.374 9.21824 174.046 10.0467 174.046V172.546V171.046ZM17.3533 174.046C18.1818 174.046 18.8533 173.374 18.8533 172.546C18.8533 171.717 18.1818 171.046 17.3533 171.046V172.546V174.046ZM23.7467 171.046C22.9182 171.046 22.2467 171.717 22.2467 172.546C22.2467 173.374 22.9182 174.046 23.7467 174.046V172.546V171.046ZM31.0533 174.046C31.8818 174.046 32.5533 173.374 32.5533 172.546C32.5533 171.717 31.8818 171.046 31.0533 171.046V172.546V174.046ZM37.4467 171.046C36.6182 171.046 35.9467 171.717 35.9467 172.546C35.9467 173.374 36.6182 174.046 37.4467 174.046V172.546V171.046ZM44.7533 174.046C45.5818 174.046 46.2533 173.374 46.2533 172.546C46.2533 171.717 45.5818 171.046 44.7533 171.046V172.546V174.046ZM51.1467 171.046C50.3182 171.046 49.6467 171.717 49.6467 172.546C49.6467 173.374 50.3182 174.046 51.1467 174.046V172.546V171.046ZM58.4533 174.046C59.2818 174.046 59.9533 173.374 59.9533 172.546C59.9533 171.717 59.2818 171.046 58.4533 171.046V172.546V174.046ZM64.8467 171.046C64.0182 171.046 63.3467 171.717 63.3467 172.546C63.3467 173.374 64.0182 174.046 64.8467 174.046V172.546V171.046ZM70 168.631C70 167.802 69.3284 167.131 68.5 167.131C67.6716 167.131 67 167.802 67 168.631H68.5H70ZM67 161.779C67 162.608 67.6716 163.279 68.5 163.279C69.3284 163.279 70 162.608 70 161.779H68.5H67ZM70 153.949C70 153.12 69.3284 152.449 68.5 152.449C67.6716 152.449 67 153.12 67 153.949H68.5H70ZM67 147.097C67 147.926 67.6716 148.597 68.5 148.597C69.3284 148.597 70 147.926 70 147.097H68.5H67ZM70 139.267C70 138.439 69.3284 137.767 68.5 137.767C67.6716 137.767 67 138.439 67 139.267H68.5H70ZM67 132.416C67 133.244 67.6716 133.916 68.5 133.916C69.3284 133.916 70 133.244 70 132.416H68.5H67ZM70 124.585C70 123.757 69.3284 123.085 68.5 123.085C67.6716 123.085 67 123.757 67 124.585H68.5H70ZM67 117.734C67 118.562 67.6716 119.234 68.5 119.234C69.3284 119.234 70 118.562 70 117.734H68.5H67ZM70 109.903C70 109.075 69.3284 108.403 68.5 108.403C67.6716 108.403 67 109.075 67 109.903H68.5H70ZM67 103.052C67 103.88 67.6716 104.552 68.5 104.552C69.3284 104.552 70 103.88 70 103.052H68.5H67ZM70 95.2216C70 94.3932 69.3284 93.7216 68.5 93.7216C67.6716 93.7216 67 94.3932 67 95.2216H68.5H70ZM67 88.3701C67 89.1986 67.6716 89.8701 68.5 89.8701C69.3284 89.8701 70 89.1986 70 88.3701H68.5H67ZM70 80.5398C70 79.7114 69.3284 79.0398 68.5 79.0398C67.6716 79.0398 67 79.7114 67 80.5398H68.5H70ZM67 73.6883C67 74.5167 67.6716 75.1883 68.5 75.1883C69.3284 75.1883 70 74.5167 70 73.6883H68.5H67ZM70 65.858C70 65.0296 69.3284 64.358 68.5 64.358C67.6716 64.358 67 65.0296 67 65.858H68.5H70ZM67 59.0065C67 59.8349 67.6716 60.5065 68.5 60.5065C69.3284 60.5065 70 59.8349 70 59.0065H68.5H67ZM70 51.1762C70 50.3478 69.3284 49.6762 68.5 49.6762C67.6716 49.6762 67 50.3478 67 51.1762H68.5H70ZM67 44.3247C67 45.1531 67.6716 45.8247 68.5 45.8247C69.3284 45.8247 70 45.1531 70 44.3247H68.5H67ZM70 36.4944C70 35.6659 69.3284 34.9944 68.5 34.9944C67.6716 34.9944 67 35.6659 67 36.4944H68.5H70ZM67 29.6428C67 30.4713 67.6716 31.1428 68.5 31.1428C69.3284 31.1428 70 30.4713 70 29.6428H68.5H67ZM70 21.8125C70 20.9841 69.3284 20.3125 68.5 20.3125C67.6716 20.3125 67 20.9841 67 21.8125H68.5H70ZM67 14.961C67 15.7894 67.6716 16.461 68.5 16.461C69.3284 16.461 70 15.7894 70 14.961H68.5H67ZM72.1 12.5459C72.9284 12.5459 73.6 11.8743 73.6 11.0459C73.6 10.2175 72.9284 9.5459 72.1 9.5459V11.0459V12.5459ZM78.4 9.5459C77.5716 9.5459 76.9 10.2175 76.9 11.0459C76.9 11.8743 77.5716 12.5459 78.4 12.5459V11.0459V9.5459ZM85.6 12.5459C86.4284 12.5459 87.1 11.8743 87.1 11.0459C87.1 10.2175 86.4284 9.5459 85.6 9.5459V11.0459V12.5459ZM91.9 9.5459C91.0716 9.5459 90.4 10.2175 90.4 11.0459C90.4 11.8743 91.0716 12.5459 91.9 12.5459V11.0459V9.5459ZM99.1 12.5459C99.9284 12.5459 100.6 11.8743 100.6 11.0459C100.6 10.2175 99.9284 9.5459 99.1 9.5459V11.0459V12.5459ZM105.4 9.5459C104.572 9.5459 103.9 10.2175 103.9 11.0459C103.9 11.8743 104.572 12.5459 105.4 12.5459V11.0459V9.5459ZM0 172.546V174.046H3.65333V172.546V171.046H0V172.546ZM10.0467 172.546V174.046H17.3533V172.546V171.046H10.0467V172.546ZM23.7467 172.546V174.046H31.0533V172.546V171.046H23.7467V172.546ZM37.4467 172.546V174.046H44.7533V172.546V171.046H37.4467V172.546ZM51.1467 172.546V174.046H58.4533V172.546V171.046H51.1467V172.546ZM64.8467 172.546V174.046H68.5V172.546V171.046H64.8467V172.546ZM68.5 172.546H70V168.631H68.5H67V172.546H68.5ZM68.5 161.779H70V153.949H68.5H67V161.779H68.5ZM68.5 147.097H70V139.267H68.5H67V147.097H68.5ZM68.5 132.416H70V124.585H68.5H67V132.416H68.5ZM68.5 117.734H70V109.903H68.5H67V117.734H68.5ZM68.5 103.052H70V95.2216H68.5H67V103.052H68.5ZM68.5 88.3701H70V80.5398H68.5H67V88.3701H68.5ZM68.5 73.6883H70V65.858H68.5H67V73.6883H68.5ZM68.5 59.0065H70V51.1762H68.5H67V59.0065H68.5ZM68.5 44.3247H70V36.4944H68.5H67V44.3247H68.5ZM68.5 29.6428H70V21.8125H68.5H67V29.6428H68.5ZM68.5 14.961H70V11.0459H68.5H67V14.961H68.5ZM68.5 11.0459V12.5459H72.1V11.0459V9.5459H68.5V11.0459ZM78.4 11.0459V12.5459H85.6V11.0459V9.5459H78.4V11.0459ZM91.9 11.0459V12.5459H99.1V11.0459V9.5459H91.9V11.0459ZM105.4 11.0459V12.5459H109V11.0459V9.5459H105.4V11.0459ZM68.5 172.546V174.046H70V172.546H68.5ZM68.5 11.0459V9.5459H67V11.0459H68.5ZM110.061 12.1066C110.646 11.5208 110.646 10.571 110.061 9.98524L100.515 0.439297C99.9289 -0.14649 98.9792 -0.14649 98.3934 0.439297C97.8076 1.02508 97.8076 1.97483 98.3934 2.56062L106.879 11.0459L98.3934 19.5312C97.8076 20.117 97.8076 21.0667 98.3934 21.6525C98.9792 22.2383 99.9289 22.2383 100.515 21.6525L110.061 12.1066ZM3.65333 174.046C4.48176 174.046 5.15333 173.374 5.15333 172.546C5.15333 171.717 4.48176 171.046 3.65333 171.046V172.546V174.046ZM10.0467 171.046C9.21824 171.046 8.54667 171.717 8.54667 172.546C8.54667 173.374 9.21824 174.046 10.0467 174.046V172.546V171.046ZM17.3533 174.046C18.1818 174.046 18.8533 173.374 18.8533 172.546C18.8533 171.717 18.1818 171.046 17.3533 171.046V172.546V174.046ZM23.7467 171.046C22.9182 171.046 22.2467 171.717 22.2467 172.546C22.2467 173.374 22.9182 174.046 23.7467 174.046V172.546V171.046ZM31.0533 174.046C31.8818 174.046 32.5533 173.374 32.5533 172.546C32.5533 171.717 31.8818 171.046 31.0533 171.046V172.546V174.046ZM37.4467 171.046C36.6182 171.046 35.9467 171.717 35.9467 172.546C35.9467 173.374 36.6182 174.046 37.4467 174.046V172.546V171.046ZM44.7533 174.046C45.5818 174.046 46.2533 173.374 46.2533 172.546C46.2533 171.717 45.5818 171.046 44.7533 171.046V172.546V174.046ZM51.1467 171.046C50.3182 171.046 49.6467 171.717 49.6467 172.546C49.6467 173.374 50.3182 174.046 51.1467 174.046V172.546V171.046ZM58.4533 174.046C59.2818 174.046 59.9533 173.374 59.9533 172.546C59.9533 171.717 59.2818 171.046 58.4533 171.046V172.546V174.046ZM64.8467 171.046C64.0182 171.046 63.3467 171.717 63.3467 172.546C63.3467 173.374 64.0182 174.046 64.8467 174.046V172.546V171.046ZM70 168.631C70 167.802 69.3284 167.131 68.5 167.131C67.6716 167.131 67 167.802 67 168.631H68.5H70ZM67 161.779C67 162.608 67.6716 163.279 68.5 163.279C69.3284 163.279 70 162.608 70 161.779H68.5H67ZM70 153.949C70 153.12 69.3284 152.449 68.5 152.449C67.6716 152.449 67 153.12 67 153.949H68.5H70ZM67 147.097C67 147.926 67.6716 148.597 68.5 148.597C69.3284 148.597 70 147.926 70 147.097H68.5H67ZM70 139.267C70 138.439 69.3284 137.767 68.5 137.767C67.6716 137.767 67 138.439 67 139.267H68.5H70ZM67 132.416C67 133.244 67.6716 133.916 68.5 133.916C69.3284 133.916 70 133.244 70 132.416H68.5H67ZM70 124.585C70 123.757 69.3284 123.085 68.5 123.085C67.6716 123.085 67 123.757 67 124.585H68.5H70ZM67 117.734C67 118.562 67.6716 119.234 68.5 119.234C69.3284 119.234 70 118.562 70 117.734H68.5H67ZM70 109.903C70 109.075 69.3284 108.403 68.5 108.403C67.6716 108.403 67 109.075 67 109.903H68.5H70ZM67 103.052C67 103.88 67.6716 104.552 68.5 104.552C69.3284 104.552 70 103.88 70 103.052H68.5H67ZM70 95.2216C70 94.3932 69.3284 93.7216 68.5 93.7216C67.6716 93.7216 67 94.3932 67 95.2216H68.5H70ZM67 88.3701C67 89.1986 67.6716 89.8701 68.5 89.8701C69.3284 89.8701 70 89.1986 70 88.3701H68.5H67ZM70 80.5398C70 79.7114 69.3284 79.0398 68.5 79.0398C67.6716 79.0398 67 79.7114 67 80.5398H68.5H70ZM67 73.6883C67 74.5167 67.6716 75.1883 68.5 75.1883C69.3284 75.1883 70 74.5167 70 73.6883H68.5H67ZM70 65.858C70 65.0296 69.3284 64.358 68.5 64.358C67.6716 64.358 67 65.0296 67 65.858H68.5H70ZM67 59.0065C67 59.8349 67.6716 60.5065 68.5 60.5065C69.3284 60.5065 70 59.8349 70 59.0065H68.5H67ZM70 51.1762C70 50.3478 69.3284 49.6762 68.5 49.6762C67.6716 49.6762 67 50.3478 67 51.1762H68.5H70ZM67 44.3247C67 45.1531 67.6716 45.8247 68.5 45.8247C69.3284 45.8247 70 45.1531 70 44.3247H68.5H67ZM70 36.4944C70 35.6659 69.3284 34.9944 68.5 34.9944C67.6716 34.9944 67 35.6659 67 36.4944H68.5H70ZM67 29.6428C67 30.4713 67.6716 31.1428 68.5 31.1428C69.3284 31.1428 70 30.4713 70 29.6428H68.5H67ZM70 21.8125C70 20.9841 69.3284 20.3125 68.5 20.3125C67.6716 20.3125 67 20.9841 67 21.8125H68.5H70ZM67 14.961C67 15.7894 67.6716 16.461 68.5 16.461C69.3284 16.461 70 15.7894 70 14.961H68.5H67ZM72.1 12.5459C72.9284 12.5459 73.6 11.8743 73.6 11.0459C73.6 10.2175 72.9284 9.5459 72.1 9.5459V11.0459V12.5459ZM78.4 9.5459C77.5716 9.5459 76.9 10.2175 76.9 11.0459C76.9 11.8743 77.5716 12.5459 78.4 12.5459V11.0459V9.5459ZM85.6 12.5459C86.4284 12.5459 87.1 11.8743 87.1 11.0459C87.1 10.2175 86.4284 9.5459 85.6 9.5459V11.0459V12.5459ZM91.9 9.5459C91.0716 9.5459 90.4 10.2175 90.4 11.0459C90.4 11.8743 91.0716 12.5459 91.9 12.5459V11.0459V9.5459ZM99.1 12.5459C99.9284 12.5459 100.6 11.8743 100.6 11.0459C100.6 10.2175 99.9284 9.5459 99.1 9.5459V11.0459V12.5459ZM105.4 9.5459C104.572 9.5459 103.9 10.2175 103.9 11.0459C103.9 11.8743 104.572 12.5459 105.4 12.5459V11.0459V9.5459ZM0 172.546V174.046H3.65333V172.546V171.046H0V172.546ZM10.0467 172.546V174.046H17.3533V172.546V171.046H10.0467V172.546ZM23.7467 172.546V174.046H31.0533V172.546V171.046H23.7467V172.546ZM37.4467 172.546V174.046H44.7533V172.546V171.046H37.4467V172.546ZM51.1467 172.546V174.046H58.4533V172.546V171.046H51.1467V172.546ZM64.8467 172.546V174.046H68.5V172.546V171.046H64.8467V172.546ZM68.5 172.546H70V168.631H68.5H67V172.546H68.5ZM68.5 161.779H70V153.949H68.5H67V161.779H68.5ZM68.5 147.097H70V139.267H68.5H67V147.097H68.5ZM68.5 132.416H70V124.585H68.5H67V132.416H68.5ZM68.5 117.734H70V109.903H68.5H67V117.734H68.5ZM68.5 103.052H70V95.2216H68.5H67V103.052H68.5ZM68.5 88.3701H70V80.5398H68.5H67V88.3701H68.5ZM68.5 73.6883H70V65.858H68.5H67V73.6883H68.5ZM68.5 59.0065H70V51.1762H68.5H67V59.0065H68.5ZM68.5 44.3247H70V36.4944H68.5H67V44.3247H68.5ZM68.5 29.6428H70V21.8125H68.5H67V29.6428H68.5ZM68.5 14.961H70V11.0459H68.5H67V14.961H68.5ZM68.5 11.0459V12.5459H72.1V11.0459V9.5459H68.5V11.0459ZM78.4 11.0459V12.5459H85.6V11.0459V9.5459H78.4V11.0459ZM91.9 11.0459V12.5459H99.1V11.0459V9.5459H91.9V11.0459ZM105.4 11.0459V12.5459H109V11.0459V9.5459H105.4V11.0459Z" fill="#050038" fill-opacity="0.3"/>
</svg>
