<svg width="16" height="16" viewBox="0 0 16 16" fill="none" xmlns="http://www.w3.org/2000/svg">
<path d="M16 7.33898C15.7662 5.27222 14.8156 3.37348 13.3352 2.0161C11.8548 0.658722 9.95167 -0.0590872 8 0.00380971C6.04833 -0.0590872 4.14519 0.658722 2.66478 2.0161C1.18438 3.37348 0.233816 5.27222 0 7.33898L0 8.66102C0.233816 10.7278 1.18438 12.6265 2.66478 13.9839C4.14519 15.3413 6.04833 16.0591 8 15.9962C9.95167 16.0591 11.8548 15.3413 13.3352 13.9839C14.8156 12.6265 15.7662 10.7278 16 8.66102V7.33898ZM14.75 7.33898H11.75C11.704 6.42178 11.5597 5.51319 11.32 4.63094C11.9451 4.35996 12.5337 4.00142 13.07 3.56478C13.9994 4.59145 14.5802 5.91993 14.72 7.33898H14.75ZM5.57 7.33898C5.61284 6.56609 5.73695 5.80076 5.94 5.0574C6.61327 5.24028 7.30522 5.33339 8 5.3346C8.70475 5.33494 9.40681 5.24182 10.09 5.0574C10.2891 5.80172 10.4132 6.56658 10.46 7.33898H5.57ZM10.49 8.66102C10.448 9.43402 10.3239 10.1994 10.12 10.9426C8.74839 10.5716 7.31161 10.5716 5.94 10.9426C5.73695 10.1992 5.61284 9.43391 5.57 8.66102H10.49ZM10.89 3.33022C10.6354 2.73096 10.3379 2.15352 10 1.60305C10.7166 1.84013 11.3921 2.20025 12 2.66921C11.643 2.94371 11.2611 3.17943 10.86 3.37287L10.89 3.33022ZM8.29 1.34717C8.8512 2.09478 9.31537 2.91958 9.67 3.79933C9.12207 3.93248 8.56198 4.00042 8 4.0019C7.43802 4.00042 6.87793 3.93248 6.33 3.79933C6.68241 2.91838 7.14676 2.09326 7.71 1.34717H8.29ZM5.14 3.37287C4.73894 3.17943 4.35704 2.94371 4 2.66921C4.60786 2.20025 5.2834 1.84013 6 1.60305C5.66408 2.16427 5.37625 2.7566 5.14 3.37287ZM3 3.55412C3.53635 3.99076 4.12486 4.3493 4.75 4.62028C4.50768 5.50189 4.36335 6.4108 4.32 7.32832H1.32C1.46805 5.90525 2.05961 4.57628 3 3.55412ZM1.28 8.66102H4.28C4.32335 9.57854 4.46768 10.4875 4.71 11.3691C4.08486 11.64 3.49635 11.9986 2.96 12.4352C2.01961 11.4131 1.42805 10.0841 1.28 8.66102ZM5.14 12.6271C5.37625 13.2434 5.66408 13.8357 6 14.397C5.2834 14.1599 4.60786 13.7998 4 13.3308C4.35704 13.0563 4.73894 12.8206 5.14 12.6271ZM7.71 14.6528C7.14676 13.9067 6.68241 13.0816 6.33 12.2007C7.42878 11.9293 8.57121 11.9293 9.67 12.2007C9.31759 13.0816 8.85324 13.9067 8.29 14.6528H7.71ZM10.86 12.6271C11.2783 12.8173 11.6771 13.0532 12.05 13.3308C11.4395 13.7951 10.7647 14.1548 10.05 14.397C10.3641 13.8311 10.6349 13.2393 10.86 12.6271ZM13 12.4459C12.4637 12.0092 11.8751 11.6507 11.25 11.3797C11.4942 10.4986 11.6385 9.58942 11.68 8.67168H14.68C14.5319 10.0947 13.9404 11.4237 13 12.4459Z" fill="#000D38"/>
</svg>
