<svg width="24" height="28" viewBox="0 0 24 28" fill="none" xmlns="http://www.w3.org/2000/svg">
<path d="M11.0312 0.247038C12.1026 -0.422544 13.4927 0.347838 13.4927 1.6112C13.4927 1.64675 13.488 1.68196 13.4857 1.71714C13.4889 1.75962 13.4927 1.80275 13.4927 1.84606V8.82779C13.4927 9.75922 12.7372 10.5147 11.8058 10.5148C10.8743 10.5148 10.1188 9.75923 10.1188 8.82779V4.61137L4.16544 8.33209C3.67246 8.64021 3.37307 9.18088 3.37293 9.76221V17.5904C3.37292 18.1718 3.07339 18.7123 2.58042 19.0205C1.45719 19.7227 3.09421e-05 18.9151 0 17.5904V8.07625C0.000151155 7.49491 0.299522 6.95424 0.792514 6.64612L11.0312 0.247038Z" fill="url(#paint0_linear_10961_263)"/>
<path d="M12.5814 26.8023C11.5098 27.4721 10.1191 26.7007 10.1191 25.4369C10.1192 25.4038 10.1237 25.371 10.1257 25.3381C10.1222 25.2938 10.1191 25.2483 10.1191 25.2031V18.2214C10.1192 17.29 10.8742 16.5349 11.8057 16.5349C12.7371 16.5349 13.4922 17.29 13.4922 18.2214V22.4394L19.4461 18.7171C19.9392 18.4089 20.2383 17.8673 20.2383 17.2859V9.45766C20.2386 8.87656 20.5378 8.33613 21.0305 8.02806C22.1536 7.32613 23.6108 8.13348 23.6114 9.45766V18.9724C23.6114 19.5539 23.3122 20.0955 22.8192 20.4037L12.5814 26.8023Z" fill="url(#paint1_linear_10961_263)"/>
<path d="M16.2582 3.34706C17.459 2.59654 19.0172 3.461 19.0172 4.87709V15.0485C19.017 15.6698 18.697 16.2474 18.1703 16.5768L14.5098 18.8639V17.6789C14.5091 16.1153 13.1862 14.8777 11.6259 14.9816C10.2057 15.0762 9.10176 16.2558 9.10107 17.6789V22.2444L7.35272 23.3377C6.15206 24.0882 4.5942 23.2252 4.59375 21.8095V11.6381C4.59375 11.0165 4.91351 10.4375 5.44063 10.108L9.10107 7.81917V8.81395C9.10118 10.3074 10.3119 11.5183 11.8055 11.5183C13.299 11.5183 14.5097 10.3074 14.5098 8.81395V4.43868L16.2582 3.34706Z" fill="url(#paint2_linear_10961_263)"/>
<defs>
<linearGradient id="paint0_linear_10961_263" x1="10.7454" y1="3.07012" x2="12.1554" y2="16.6303" gradientUnits="userSpaceOnUse">
<stop stop-color="#09DFF8"/>
<stop offset="1" stop-color="#033FFF"/>
</linearGradient>
<linearGradient id="paint1_linear_10961_263" x1="22.9844" y1="11.5596" x2="22.2521" y2="24.4724" gradientUnits="userSpaceOnUse">
<stop stop-color="#09DFF8"/>
<stop offset="1" stop-color="#033FFF"/>
</linearGradient>
<linearGradient id="paint2_linear_10961_263" x1="18.3469" y1="7.10943" x2="17.5691" y2="20.8692" gradientUnits="userSpaceOnUse">
<stop stop-color="#09DFF8"/>
<stop offset="1" stop-color="#033FFF"/>
</linearGradient>
</defs>
</svg>
