<svg width="28" height="32" viewBox="0 0 28 32" fill="none" xmlns="http://www.w3.org/2000/svg">
<path d="M12.9573 0.290172C14.2157 -0.496321 15.8485 0.408571 15.8486 1.89252C15.8486 1.93428 15.8431 1.97563 15.8404 2.01696C15.8441 2.06686 15.8486 2.11752 15.8486 2.16839V10.3691C15.8486 11.4632 14.9611 12.3506 13.8671 12.3507C12.773 12.3507 11.8856 11.4632 11.8856 10.3691V5.41653L4.89274 9.7869C4.31369 10.1488 3.96202 10.7839 3.96185 11.4667V20.6618C3.96184 21.3447 3.61001 21.9796 3.03096 22.3416C1.71161 23.1663 3.63446e-05 22.2177 0 20.6618V9.48638C0.000177547 8.80354 0.351819 8.16847 0.930889 7.80656L12.9573 0.290172Z" fill="url(#paint0_linear_11139_2055)"/>
<path d="M14.7782 31.4823C13.5194 32.269 11.886 31.3629 11.886 29.8785C11.886 29.8395 11.8913 29.801 11.8937 29.7624C11.8896 29.7103 11.886 29.6569 11.886 29.6038V21.4031C11.886 20.309 12.7729 19.4221 13.867 19.4221C14.9611 19.4221 15.848 20.309 15.848 21.4031V26.3575L22.8415 21.9854C23.4206 21.6234 23.772 20.9872 23.772 20.3042V11.1092C23.7724 10.4266 24.1238 9.79184 24.7026 9.42997C26.0217 8.60549 27.7333 9.5538 27.734 11.1092V22.2853C27.734 22.9682 27.3826 23.6044 26.8035 23.9664L14.7782 31.4823Z" fill="url(#paint1_linear_11139_2055)"/>
<path d="M19.0973 3.93127C20.5078 3.0497 22.338 4.0651 22.338 5.72844V17.6758C22.3378 18.4056 21.962 19.084 21.3433 19.4709L17.0437 22.1574V20.7655C17.0428 18.9289 15.489 17.4753 13.6562 17.5972C11.988 17.7084 10.6914 19.0939 10.6905 20.7655V26.1281L8.63694 27.4124C7.22663 28.2938 5.39677 27.2802 5.39624 25.6173V13.6699C5.39624 12.9398 5.77183 12.2597 6.39099 11.8727L10.6905 9.18423V10.3527C10.6907 12.107 12.1128 13.5293 13.8671 13.5293C15.6214 13.5293 17.0436 12.107 17.0437 10.3527V5.21349L19.0973 3.93127Z" fill="url(#paint2_linear_11139_2055)"/>
<defs>
<linearGradient id="paint0_linear_11139_2055" x1="12.6216" y1="3.60617" x2="14.2778" y2="19.534" gradientUnits="userSpaceOnUse">
<stop stop-color="#09DFF8"/>
<stop offset="1" stop-color="#033FFF"/>
</linearGradient>
<linearGradient id="paint1_linear_11139_2055" x1="26.9975" y1="13.5782" x2="26.1374" y2="28.7456" gradientUnits="userSpaceOnUse">
<stop stop-color="#09DFF8"/>
<stop offset="1" stop-color="#033FFF"/>
</linearGradient>
<linearGradient id="paint2_linear_11139_2055" x1="21.5507" y1="8.35057" x2="20.6371" y2="24.5128" gradientUnits="userSpaceOnUse">
<stop stop-color="#09DFF8"/>
<stop offset="1" stop-color="#033FFF"/>
</linearGradient>
</defs>
</svg>
